<?xml version="1.0" encoding="UTF-8"?><svg id="a" xmlns="http://www.w3.org/2000/svg" viewBox="0 0 512 512"><defs><style>.h{fill:#ea2c0b;}.i{fill:#fff;}.j{fill:#efd978;}.k{fill:#dfca4e;}</style></defs><g id="b"><g><path id="c" class="k" d="M238.92,366.73v7.79c0,3.03-2.48,5.51-5.51,5.51h-85.82c-3.03,0-5.51-2.48-5.51-5.51v-7.79c0-6.64,5.43-12.07,12.07-12.07h21.23c2.46-4.72,3.78-10.08,3.86-15.79,.06-3.87-.24-6.97-.86-9.58-.7-3.02-1.82-5.4-3.28-7.57-.84-2.47-1.53-5.01-2.02-7.63-.66-3.38-.99-6.88-.99-10.45,0-.52,0-1.04,.03-1.56,.01-.9,.06-1.78,.14-2.66,.02-.32,.05-.64,.08-.95,.07-.72,.15-1.44,.25-2.15,.04-.34,.09-.69,.14-1.03h0c.06-.39,.12-.76,.18-1.13,.02-.11,.03-.21,.06-.32,.12-.71,.27-1.42,.41-2.11,.05-.2,.09-.39,.13-.58,.09-.37,.17-.73,.27-1.09,0-.03,.01-.06,.03-.08,.09-.41,.21-.82,.32-1.22,.03-.12,.07-.23,.1-.34,.12-.43,.24-.84,.37-1.26,.12-.37,.23-.74,.35-1.11,.05-.12,.08-.25,.13-.37h0c.16-.48,.33-.93,.5-1.39l.02-.04c1.14-2.28,1.15-4.94,.07-7.25-.62-1.33-1.22-2.67-1.77-4.03h0c-.06-.16-.13-.32-.19-.47-.21-.52-.41-1.04-.61-1.57-.21-.52-.4-1.06-.59-1.59-.01-.01-.01-.03-.01-.04-.14-.37-.26-.73-.39-1.11-.01-.03-.03-.05-.03-.08-.34-.99-.67-2-.98-3.02-1.47-4.82-2.54-9.82-3.16-14.96-.46-3.64-.69-7.35-.69-11.11,0-7.03,.78-13.87,2.32-20.44,.03-.21,.03-.17,.06-.36,.44-1.37,.69-2.88,.69-4.46,0-3.78-1.87-7.14-4.75-9.16-2.21-1.56-4.01-3.64-4.92-6.19-4.89-13.77-7.75-28.49-8.25-43.81-.05-1.6-.08-3.2-.08-4.81v-.05c0-2.47,1.65-4.66,4.04-5.3,2.87-.76,5.65-1.76,8.32-2.96,6.77-3.05,12.8-7.42,17.78-12.78,.24-.25,.64-.71,1.05-1.19,.7-.82,.79-2,.19-2.93-3.22-5-5.61-10.26-5.61-16.72,0-3.87,.65-7.59,1.84-11.05,.59-1.73,1.92-3.12,3.6-3.81,1.79-.73,3.72-1.21,5.72-1.37,.41-.05,.83-.06,1.25-.07,.42,0,.84,.03,1.25,.07,2.01,.16,3.93,.64,5.72,1.37,1.69,.69,3.01,2.09,3.6,3.81,1.19,3.47,1.84,7.19,1.84,11.05,0,6.46-2.4,11.72-5.61,16.72-.59,.92-.51,2.11,.19,2.93,.41,.48,.81,.94,1.05,1.19,4.98,5.36,11.01,9.73,17.78,12.78,2.66,1.2,5.44,2.2,8.32,2.96,2.39,.63,4.04,2.82,4.04,5.3v.05c0,1.61-.03,3.22-.08,4.81-.5,15.32-3.36,30.04-8.25,43.81-.9,2.55-2.7,4.63-4.92,6.19-2.88,2.03-4.75,5.38-4.75,9.16,0,1.58,.25,3.09,.69,4.46,.03,.19,.03,.15,.06,.36,1.54,6.57,2.32,13.41,2.32,20.44,0,3.76-.23,7.48-.69,11.11-.63,5.14-1.7,10.14-3.16,14.96-.31,1.02-.64,2.03-.98,3.02,0,.03-.02,.06-.03,.08-.12,.37-.25,.74-.39,1.11,0,.01,0,.03-.01,.04-.19,.53-.38,1.07-.59,1.59-.2,.53-.4,1.05-.61,1.57-.06,.15-.12,.31-.19,.46h0c-.38,1.06-.47,1.68-.87,2.53-1.36,2.92-2.23,5.96-.84,8.76l.02,.04c.17,.46,.34,.91,.5,1.37h0c.05,.13,.08,.26,.13,.38,.12,.37,.24,.74,.35,1.11,.14,.42,.25,.84,.37,1.26,.03,.11,.07,.23,.1,.34,.11,.4,.23,.81,.32,1.22,.01,.03,.02,.05,.03,.08,.1,.36,.18,.72,.27,1.09,.04,.19,.08,.38,.13,.58,.14,.69,.29,1.4,.41,2.11,.03,.1,.04,.21,.06,.32,.06,.37,.12,.75,.18,1.13h0c.05,.35,.1,.7,.14,1.04,.1,.71,.18,1.43,.25,2.15,.03,.32,.06,.64,.08,.95,.07,.88,.12,1.77,.14,2.66,.02,.52,.03,1.04,.03,1.56,0,3.57-.34,7.06-.99,10.45-.5,2.62-1.18,5.16-2.02,7.63-1.46,2.17-2.58,4.54-3.28,7.57-.61,2.61-.92,5.71-.86,9.58,.08,5.7,1.4,11.07,3.86,15.79h21.23c6.64,0,12.07,5.43,12.07,12.07Z"/><g id="d"><path class="j" d="M163.51,173.5c.45,3.12,1.16,6.19,2.21,9.1,.53,1.45,1.1,2.88,1.79,4.23,.34,.68,.66,1.36,1.07,2,.38,.65,.75,1.3,1.21,1.89,.43,.6,.86,1.21,1.38,1.73,.5,.54,.98,1.08,1.55,1.53,.54,.48,1.03,1,1.6,1.42,.27,.23,.54,.46,.8,.7,.24,.26,.53,.47,.82,.68,.56,.43,1.09,.93,1.67,1.36,.58,.44,1.19,.85,1.81,1.28,1.25,.82,2.59,1.6,4.03,2.47l-.07,.42c-1.68,.33-3.4,.26-5.09-.1-.85-.16-1.68-.42-2.49-.74-.81-.31-1.55-.77-2.33-1.18-.78-.4-1.43-1-2.11-1.55-.69-.54-1.23-1.24-1.78-1.91-.56-.66-1.01-1.4-1.46-2.13-.48-.71-.87-1.46-1.26-2.21-.43-.73-.75-1.5-1.09-2.27-.36-.75-.61-1.54-.89-2.32-.53-1.57-.9-3.17-1.22-4.76-.27-1.61-.48-3.21-.57-4.82-.11-1.61-.12-3.22,0-4.81h.43Z"/></g><g id="e"><path class="j" d="M182.92,110.53c.33,2.25,1.03,4.46,2.27,6.23,.62,.89,1.46,1.52,2.22,2.19,.77,.7,1.68,1.23,2.72,1.85l-.03,.15c-1.21,.23-2.5-.07-3.58-.73-1.11-.64-1.83-1.76-2.39-2.82-.57-1.08-.93-2.23-1.16-3.38-.2-1.16-.29-2.33-.21-3.49h.16Z"/></g><g id="f"><path class="j" d="M178.48,307.15c.23,1.56,.58,3.1,1.11,4.56,.5,1.46,1.17,2.85,2.04,4.06,.86,1.23,2.02,2.11,3.08,3.04,1.07,.96,2.32,1.7,3.76,2.56l-.04,.21c-1.68,.31-3.47-.09-4.96-1.01-1.54-.89-2.53-2.43-3.31-3.9-.78-1.5-1.29-3.09-1.6-4.68-.27-1.61-.4-3.22-.29-4.83h.21Z"/></g></g></g><g id="g"><path class="i" d="M129.16,371.75c3.22,4.6,1.15,8.27-4.37,8.27h-34.47c-3.68,0-6.21-1.38-8.27-4.6l-28.5-43.67c-.92-1.38-2.3-1.38-3.22,0l-9.42,12.87c-.69,.92-.92,1.84-.92,2.99v25.51c0,4.37-2.3,6.89-6.89,6.89H0V226.05C0,221.45,2.53,219.15,6.89,219.15h26.2c3.81,0,6.89,3.09,6.89,6.89v46.19c0,2.3,1.61,2.76,2.76,.92l36.08-49.64c2.07-2.99,4.6-4.37,8.27-4.37h34.01c5.75,0,7.58,3.68,4.37,8.5l-46.42,63.89c-.69,1.15-.92,2.07,0,3.22l50.1,76.99Z"/><path class="i" d="M291.69,219.58c3.91,0,6.43,1.61,8.04,5.29l31.26,76.53c.92,2.07,2.76,1.61,2.76-.69v-74.23c0-4.6,2.53-6.89,6.89-6.89h25.74c4.6,0,6.89,2.3,6.89,6.89v147.09c0,4.37-2.3,6.89-6.89,6.89h-33.78c-3.91,0-6.43-1.61-8.04-5.29l-31.26-76.53c-.92-2.07-2.76-1.61-2.76,.69v74.23c0,4.37-2.3,6.89-6.89,6.89h-25.74c-4.37,0-6.89-2.53-6.89-6.89V226.48c0-4.6,2.53-6.89,6.89-6.89h33.78Z"/><path class="i" d="M512,328.58c0,15.17-3.22,55.85-57.69,55.85s-57.69-40.68-57.69-55.85v-57.46c0-15.17,3.22-55.85,57.69-55.85s57.69,40.68,57.69,55.85v57.46Zm-39.53-45.28c0-17.7-1.15-28.5-18.16-28.5s-18.16,10.8-18.16,28.5v33.09c0,17.7,1.15,28.5,18.16,28.5s18.16-10.8,18.16-28.5v-33.09Z"/><path class="h" d="M0,380.03H491.92c11.08,0,20.08,9,20.08,20.08v.26c0,11.08-9,20.08-20.08,20.08H19.52c-10.78,0-19.52-8.75-19.52-19.52v-20.9H0Z"/></g></svg>