<?xml version="1.0" encoding="utf-8"?>
<!-- Generator: Adobe Illustrator 26.1.0, SVG Export Plug-In . SVG Version: 6.00 Build 0)  -->
<svg version="1.1" id="Layer_1" xmlns="http://www.w3.org/2000/svg" xmlns:xlink="http://www.w3.org/1999/xlink" x="0px" y="0px"
	 viewBox="0 0 256 256" style="enable-background:new 0 0 256 256;" xml:space="preserve">
<style type="text/css">
	.st0{fill:#D9D7D7;}
</style>
<g transform="translate(128 128) scale(0.72 0.72)">
	<g transform="translate(-175.05 -175.05000000000004) scale(3.89 3.89)">
		<path class="st0" d="M52.5,34.4c-6.3-2.8-11.6-1.9-15,2.4c-4,5.2-4.2,13.8-0.3,18.1c3.2,3.6,8.7,3.5,15.6-0.2
			C50.2,48.4,51.4,39.8,52.5,34.4z"/>
		<path class="st0" d="M45,0C20.1,0,0,20.1,0,45s20.1,45,45,45s45-20.1,45-45S69.9,0,45,0z M65.6,63C65.6,63,65.6,63,65.6,63
			c-4.3,0-7.7-1.3-10.2-4c-4.8,2.6-8.7,3.5-11.9,3.5c-5.4,0-8.6-2.6-10-4.3C28,52.2,28,40.9,33.6,33.8c2.3-3,8.7-9,20.2-4.2
			c0.5-1.2,1.8-1.9,3.1-1.5c1.3,0.4,2,1.8,1.6,3.1c-1.5,4.6-4.3,17.9,0,23.8C60,57,62.3,58,65.6,58c3.3-0.1,6.9-1.1,6.9-13
			c0-15.2-12.3-27.5-27.5-27.5c-15.2,0-27.5,12.3-27.5,27.5c0,15.2,12.3,27.5,27.5,27.5c1.4,0,2.5,1.1,2.5,2.5s-1.1,2.5-2.5,2.5
			c-17.9,0-32.5-14.6-32.5-32.5c0-17.9,14.6-32.5,32.5-32.5c17.9,0,32.5,14.6,32.5,32.5C77.5,49.9,77.5,62.8,65.6,63z"/>
	</g>
</g>
</svg>
