<?xml version="1.0" encoding="UTF-8"?><svg id="a" xmlns="http://www.w3.org/2000/svg" viewBox="0 0 324.91 512"><defs><style>.b{fill:#f2293a;}.c{fill:#d9d7d7;}</style></defs><g><path class="b" d="M324.91,39.43V255.99c0-22.43-18.18-40.61-40.61-40.61h-.01c-22.43,0-40.61,18.18-40.61,40.61v-83.69c0-12.42-15.01-18.64-23.79-9.86h0l-25.17,25.17-22.26,22.26c-5.59,5.58-14.64,5.58-20.21,0l-47.54-47.54c-1.47-1.47-3.18-2.64-5.13-3.31-8.44-2.82-18.35,3.18-18.35,13.28v2.46c0,11.22-4.55,21.37-11.9,28.73-7.36,7.34-17.51,11.89-28.73,11.89C18.18,215.38,0,197.19,0,174.76V38.89c0-10.74,4.35-20.45,11.39-27.49C18.43,4.36,28.15,0,38.88,0c11.88,0,23.28,4.72,31.67,13.13l59.5,59.5,28.42,28.39,1.15,1.16c.79,.79,1.82,1.18,2.85,1.18s2.07-.39,2.86-1.18l1.15-1.16,28.42-28.39L254.37,13.13C263,4.5,274.76-.25,286.99,.01c20.88,.45,37.92,18.54,37.92,39.42Z"/><path class="c" d="M324.91,255.99v92.76c0,65.12-37.41,121.4-91.67,148.02-5.14,2.36-10.44,4.43-15.9,6.23-18.67,6.13-37.12,8.99-54.89,8.99-3.2,0-6.42-.1-9.67-.28-14.75-.86-29.9-3.68-45.21-8.72-5.46-1.8-10.76-3.88-15.9-6.23C37.41,470.16,0,413.87,0,348.76v-11.53c0-11.22,4.55-21.37,11.9-28.73,7.34-7.34,17.49-11.89,28.72-11.89,22.43,0,40.62,18.19,40.62,40.62v16.25c0,37.78,25.79,69.54,60.74,78.61,1.04,.27,2.09,.54,3.15,.76,.42,.1,.84,.18,1.27,.27,.56,.12,1.11,.22,1.68,.32,.67,.12,1.34,.25,2.01,.33,.67,.11,1.34,.21,2.02,.29,.42,.05,.85,.1,1.26,.15,2.96,.34,5.95,.51,8.98,.51h.2c3.03,0,6.03-.17,8.98-.51,.42-.05,.85-.1,1.26-.15,.69-.07,1.35-.18,2.02-.29,.67-.09,1.34-.21,2.01-.33,.57-.1,1.12-.2,1.68-.32,.44-.09,.86-.17,1.27-.27,1.06-.22,2.11-.48,3.15-.76,34.95-9.07,60.74-40.82,60.74-78.61v-97.48c0-22.43,18.18-40.61,40.61-40.61h.01c22.43,0,40.61,18.18,40.61,40.61Z"/></g><path class="b" d="M243.68,134.15h81.23v40.62c0,22.42-18.2,40.62-40.62,40.62h0c-22.42,0-40.62-18.2-40.62-40.62v-40.62h0Z"/></svg>