<?xml version="1.0" encoding="utf-8"?>
<!-- Generator: Adobe Illustrator 26.1.0, SVG Export Plug-In . SVG Version: 6.00 Build 0)  -->
<svg version="1.1" id="Layer_1" xmlns="http://www.w3.org/2000/svg" xmlns:xlink="http://www.w3.org/1999/xlink" x="0px" y="0px"
	 viewBox="0 0 325 512" style="enable-background:new 0 0 325 512;" xml:space="preserve">
<style type="text/css">
	.st0{fill:#F2293A;}
</style>
<g>
	<path class="st0" d="M325,39.4v309.3c0,65.1-37.4,121.4-91.7,148c-5.1,2.4-10.4,4.4-15.9,6.2c-18.7,6.1-37.1,9-54.9,9
		c-3.2,0-6.4-0.1-9.7-0.3c-14.8-0.8-29.9-3.7-45.2-8.7c-5.5-1.8-10.8-3.9-15.9-6.2C37.4,470.1,0,413.8,0,348.7v-11.5
		c0-11.2,4.6-21.4,11.9-28.7c7.3-7.4,17.5-11.9,28.7-11.9c22.4,0,40.6,18.2,40.6,40.6v16.2c0,37.8,25.8,69.5,60.7,78.6
		c1,0.3,2.1,0.5,3.1,0.8c0.4,0.1,0.8,0.2,1.3,0.3c0.6,0.1,1.1,0.2,1.7,0.3c0.7,0.1,1.3,0.2,2,0.3c0.7,0.1,1.3,0.2,2,0.3
		c0.4,0,0.8,0.1,1.3,0.1c3,0.3,6,0.5,9,0.5h0.2c3,0,6-0.2,9-0.5c0.4-0.1,0.8-0.1,1.3-0.1c0.7-0.1,1.4-0.2,2-0.3
		c0.7-0.1,1.3-0.2,2-0.3c0.6-0.1,1.1-0.2,1.7-0.3c0.4-0.1,0.8-0.2,1.3-0.3c1.1-0.2,2.1-0.5,3.1-0.8c34.9-9.1,60.7-40.8,60.7-78.6
		V172.3c0-12.4-15-18.6-23.8-9.9l0,0l-25.2,25.2l-22.1,22.3c-5.6,5.6-14.6,5.6-20.2,0l-47.5-47.5c-1.5-1.5-3.2-2.6-5.1-3.3
		c-8.4-2.8-18.4,3.2-18.4,13.3v2.5c0,11.2-4.6,21.4-11.9,28.7c-7.4,7.3-17.5,11.9-28.7,11.9c-22.4,0-40.6-18.2-40.6-40.6v-136
		c0-10.7,4.4-20.5,11.4-27.5S28.3,0,39,0c11.9,0,23.3,4.7,31.7,13.1l59.5,59.5l28.3,28.4l1.2,1.2c0.8,0.8,1.8,1.2,2.8,1.2
		s2.1-0.4,2.9-1.2l1.2-1.2L195,72.6l59.5-59.5c8.6-8.6,20.4-13.4,32.6-13.1C307.9,0.5,325,18.5,325,39.4z"/>
</g>
</svg>
